<svg id="visual" viewBox="0 0 900 600" width="900" height="600" xmlns="http://www.w3.org/2000/svg" xmlns:xlink="http://www.w3.org/1999/xlink" version="1.1"><rect x="0" y="0" width="900" height="600" fill="#000"></rect><path d="M0 222L21.5 212.7C43 203.3 86 184.7 128.8 173.7C171.7 162.7 214.3 159.3 257.2 166.2C300 173 343 190 385.8 199C428.7 208 471.3 209 514.2 204.7C557 200.3 600 190.7 642.8 181.2C685.7 171.7 728.3 162.3 771.2 162.5C814 162.7 857 172.3 878.5 177.2L900 182L900 0L878.5 0C857 0 814 0 771.2 0C728.3 0 685.7 0 642.8 0C600 0 557 0 514.2 0C471.3 0 428.7 0 385.8 0C343 0 300 0 257.2 0C214.3 0 171.7 0 128.8 0C86 0 43 0 21.5 0L0 0Z" fill="#e9c228"></path><path d="M0 201L21.5 189.8C43 178.7 86 156.3 128.8 147.7C171.7 139 214.3 144 257.2 151.3C300 158.7 343 168.3 385.8 167.7C428.7 167 471.3 156 514.2 148.3C557 140.7 600 136.3 642.8 135.8C685.7 135.3 728.3 138.7 771.2 145C814 151.3 857 160.7 878.5 165.3L900 170L900 0L878.5 0C857 0 814 0 771.2 0C728.3 0 685.7 0 642.8 0C600 0 557 0 514.2 0C471.3 0 428.7 0 385.8 0C343 0 300 0 257.2 0C214.3 0 171.7 0 128.8 0C86 0 43 0 21.5 0L0 0Z" fill="#ec9922"></path><path d="M0 152L21.5 142.5C43 133 86 114 128.8 107.2C171.7 100.3 214.3 105.7 257.2 106C300 106.3 343 101.7 385.8 100.5C428.7 99.3 471.3 101.7 514.2 106.2C557 110.7 600 117.3 642.8 121.3C685.7 125.3 728.3 126.7 771.2 121.3C814 116 857 104 878.5 98L900 92L900 0L878.5 0C857 0 814 0 771.2 0C728.3 0 685.7 0 642.8 0C600 0 557 0 514.2 0C471.3 0 428.7 0 385.8 0C343 0 300 0 257.2 0C214.3 0 171.7 0 128.8 0C86 0 43 0 21.5 0L0 0Z" fill="#e97f28"></path><path d="M0 72L21.5 76.8C43 81.7 86 91.3 128.8 96C171.7 100.7 214.3 100.3 257.2 96.3C300 92.3 343 84.7 385.8 77.3C428.7 70 471.3 63 514.2 66.3C557 69.7 600 83.3 642.8 93.2C685.7 103 728.3 109 771.2 106.8C814 104.7 857 94.3 878.5 89.2L900 84L900 0L878.5 0C857 0 814 0 771.2 0C728.3 0 685.7 0 642.8 0C600 0 557 0 514.2 0C471.3 0 428.7 0 385.8 0C343 0 300 0 257.2 0C214.3 0 171.7 0 128.8 0C86 0 43 0 21.5 0L0 0Z" fill="#ec9922"></path><path d="M0 63L21.5 62.5C43 62 86 61 128.8 58.2C171.7 55.3 214.3 50.7 257.2 46.8C300 43 343 40 385.8 40.7C428.7 41.3 471.3 45.7 514.2 44.5C557 43.3 600 36.7 642.8 35.7C685.7 34.7 728.3 39.3 771.2 46.5C814 53.7 857 63.3 878.5 68.2L900 73L900 0L878.5 0C857 0 814 0 771.2 0C728.3 0 685.7 0 642.8 0C600 0 557 0 514.2 0C471.3 0 428.7 0 385.8 0C343 0 300 0 257.2 0C214.3 0 171.7 0 128.8 0C86 0 43 0 21.5 0L0 0Z" fill="#e9c228"></path></svg>