<svg id="visual" viewBox="0 0 960 300" width="960" height="300" xmlns="http://www.w3.org/2000/svg" xmlns:xlink="http://www.w3.org/1999/xlink" version="1.1"><rect x="0" y="0" width="960" height="300" fill="#000000"></rect><path d="M0 97L14.5 103.7C29 110.3 58 123.7 87.2 128.7C116.3 133.7 145.7 130.3 174.8 131.7C204 133 233 139 262 134.3C291 129.7 320 114.3 349 110C378 105.7 407 112.3 436.2 118C465.3 123.7 494.7 128.3 523.8 126.8C553 125.3 582 117.7 611 114.2C640 110.7 669 111.3 698 116.3C727 121.3 756 130.7 785.2 135.7C814.3 140.7 843.7 141.3 872.8 142.2C902 143 931 144 945.5 144.5L960 145L960 0L945.5 0C931 0 902 0 872.8 0C843.7 0 814.3 0 785.2 0C756 0 727 0 698 0C669 0 640 0 611 0C582 0 553 0 523.8 0C494.7 0 465.3 0 436.2 0C407 0 378 0 349 0C320 0 291 0 262 0C233 0 204 0 174.8 0C145.7 0 116.3 0 87.2 0C58 0 29 0 14.5 0L0 0Z" fill="#000000"></path><path d="M0 120L14.5 121.5C29 123 58 126 87.2 122.2C116.3 118.3 145.7 107.7 174.8 106C204 104.3 233 111.7 262 109.7C291 107.7 320 96.3 349 92.3C378 88.3 407 91.7 436.2 98.3C465.3 105 494.7 115 523.8 115.2C553 115.3 582 105.7 611 106C640 106.3 669 116.7 698 119.8C727 123 756 119 785.2 112C814.3 105 843.7 95 872.8 90C902 85 931 85 945.5 85L960 85L960 0L945.5 0C931 0 902 0 872.8 0C843.7 0 814.3 0 785.2 0C756 0 727 0 698 0C669 0 640 0 611 0C582 0 553 0 523.8 0C494.7 0 465.3 0 436.2 0C407 0 378 0 349 0C320 0 291 0 262 0C233 0 204 0 174.8 0C145.7 0 116.3 0 87.2 0C58 0 29 0 14.5 0L0 0Z" fill="#4a0000"></path><path d="M0 102L14.5 103.3C29 104.7 58 107.3 87.2 103.8C116.3 100.3 145.7 90.7 174.8 91.5C204 92.3 233 103.7 262 108.3C291 113 320 111 349 105.3C378 99.7 407 90.3 436.2 88.7C465.3 87 494.7 93 523.8 96.8C553 100.7 582 102.3 611 99.2C640 96 669 88 698 84.3C727 80.7 756 81.3 785.2 80.3C814.3 79.3 843.7 76.7 872.8 78.3C902 80 931 86 945.5 89L960 92L960 0L945.5 0C931 0 902 0 872.8 0C843.7 0 814.3 0 785.2 0C756 0 727 0 698 0C669 0 640 0 611 0C582 0 553 0 523.8 0C494.7 0 465.3 0 436.2 0C407 0 378 0 349 0C320 0 291 0 262 0C233 0 204 0 174.8 0C145.7 0 116.3 0 87.2 0C58 0 29 0 14.5 0L0 0Z" fill="#600800"></path><path d="M0 84L14.5 83.3C29 82.7 58 81.3 87.2 81.7C116.3 82 145.7 84 174.8 83.3C204 82.7 233 79.3 262 80.3C291 81.3 320 86.7 349 88C378 89.3 407 86.7 436.2 83C465.3 79.3 494.7 74.7 523.8 72C553 69.3 582 68.7 611 68C640 67.3 669 66.7 698 66.2C727 65.7 756 65.3 785.2 64.5C814.3 63.7 843.7 62.3 872.8 66.8C902 71.3 931 81.7 945.5 86.8L960 92L960 0L945.5 0C931 0 902 0 872.8 0C843.7 0 814.3 0 785.2 0C756 0 727 0 698 0C669 0 640 0 611 0C582 0 553 0 523.8 0C494.7 0 465.3 0 436.2 0C407 0 378 0 349 0C320 0 291 0 262 0C233 0 204 0 174.8 0C145.7 0 116.3 0 87.2 0C58 0 29 0 14.5 0L0 0Z" fill="#7a2300"></path><path d="M0 48L14.5 50.7C29 53.3 58 58.7 87.2 62.5C116.3 66.3 145.7 68.7 174.8 70C204 71.3 233 71.7 262 68C291 64.3 320 56.7 349 56.2C378 55.7 407 62.3 436.2 62.8C465.3 63.3 494.7 57.7 523.8 57C553 56.3 582 60.7 611 61.5C640 62.3 669 59.7 698 60.5C727 61.3 756 65.7 785.2 69C814.3 72.3 843.7 74.7 872.8 75.5C902 76.3 931 75.7 945.5 75.3L960 75L960 0L945.5 0C931 0 902 0 872.8 0C843.7 0 814.3 0 785.2 0C756 0 727 0 698 0C669 0 640 0 611 0C582 0 553 0 523.8 0C494.7 0 465.3 0 436.2 0C407 0 378 0 349 0C320 0 291 0 262 0C233 0 204 0 174.8 0C145.7 0 116.3 0 87.2 0C58 0 29 0 14.5 0L0 0Z" fill="#953a04"></path><path d="M0 57L14.5 53.7C29 50.3 58 43.7 87.2 43.3C116.3 43 145.7 49 174.8 49.7C204 50.3 233 45.7 262 45.3C291 45 320 49 349 50.2C378 51.3 407 49.7 436.2 51.2C465.3 52.7 494.7 57.3 523.8 57.8C553 58.3 582 54.7 611 51.3C640 48 669 45 698 42.5C727 40 756 38 785.2 39.7C814.3 41.3 843.7 46.7 872.8 50.5C902 54.3 931 56.7 945.5 57.8L960 59L960 0L945.5 0C931 0 902 0 872.8 0C843.7 0 814.3 0 785.2 0C756 0 727 0 698 0C669 0 640 0 611 0C582 0 553 0 523.8 0C494.7 0 465.3 0 436.2 0C407 0 378 0 349 0C320 0 291 0 262 0C233 0 204 0 174.8 0C145.7 0 116.3 0 87.2 0C58 0 29 0 14.5 0L0 0Z" fill="#b15010"></path><path d="M0 34L14.5 35.7C29 37.3 58 40.7 87.2 40.7C116.3 40.7 145.7 37.3 174.8 36.8C204 36.3 233 38.7 262 37.5C291 36.3 320 31.7 349 31.3C378 31 407 35 436.2 37.8C465.3 40.7 494.7 42.3 523.8 39.5C553 36.7 582 29.3 611 27.7C640 26 669 30 698 33.2C727 36.3 756 38.7 785.2 37.3C814.3 36 843.7 31 872.8 29.2C902 27.3 931 28.7 945.5 29.3L960 30L960 0L945.5 0C931 0 902 0 872.8 0C843.7 0 814.3 0 785.2 0C756 0 727 0 698 0C669 0 640 0 611 0C582 0 553 0 523.8 0C494.7 0 465.3 0 436.2 0C407 0 378 0 349 0C320 0 291 0 262 0C233 0 204 0 174.8 0C145.7 0 116.3 0 87.2 0C58 0 29 0 14.5 0L0 0Z" fill="#cd671c"></path><path d="M0 22L14.5 23.2C29 24.3 58 26.7 87.2 26C116.3 25.3 145.7 21.7 174.8 21.5C204 21.3 233 24.7 262 25.2C291 25.7 320 23.3 349 23C378 22.7 407 24.3 436.2 23C465.3 21.7 494.7 17.3 523.8 15.3C553 13.3 582 13.7 611 13.7C640 13.7 669 13.3 698 13.8C727 14.3 756 15.7 785.2 16.7C814.3 17.7 843.7 18.3 872.8 17.2C902 16 931 13 945.5 11.5L960 10L960 0L945.5 0C931 0 902 0 872.8 0C843.7 0 814.3 0 785.2 0C756 0 727 0 698 0C669 0 640 0 611 0C582 0 553 0 523.8 0C494.7 0 465.3 0 436.2 0C407 0 378 0 349 0C320 0 291 0 262 0C233 0 204 0 174.8 0C145.7 0 116.3 0 87.2 0C58 0 29 0 14.5 0L0 0Z" fill="#e97f28"></path></svg>