<svg id="visual" viewBox="0 0 960 600" width="960" height="600" xmlns="http://www.w3.org/2000/svg" xmlns:xlink="http://www.w3.org/1999/xlink" version="1.1"><path d="M0 222L22.8 212.7C45.7 203.3 91.3 184.7 137 173.7C182.7 162.7 228.3 159.3 274 166.2C319.7 173 365.3 190 411.2 199C457 208 503 209 548.8 204.7C594.7 200.3 640.3 190.7 686 181.2C731.7 171.7 777.3 162.3 823 162.5C868.7 162.7 914.3 172.3 937.2 177.2L960 182L960 0L937.2 0C914.3 0 868.7 0 823 0C777.3 0 731.7 0 686 0C640.3 0 594.7 0 548.8 0C503 0 457 0 411.2 0C365.3 0 319.7 0 274 0C228.3 0 182.7 0 137 0C91.3 0 45.7 0 22.8 0L0 0Z" fill="#e9c228"></path><path d="M0 201L22.8 189.8C45.7 178.7 91.3 156.3 137 147.7C182.7 139 228.3 144 274 151.3C319.7 158.7 365.3 168.3 411.2 167.7C457 167 503 156 548.8 148.3C594.7 140.7 640.3 136.3 686 135.8C731.7 135.3 777.3 138.7 823 145C868.7 151.3 914.3 160.7 937.2 165.3L960 170L960 0L937.2 0C914.3 0 868.7 0 823 0C777.3 0 731.7 0 686 0C640.3 0 594.7 0 548.8 0C503 0 457 0 411.2 0C365.3 0 319.7 0 274 0C228.3 0 182.7 0 137 0C91.3 0 45.7 0 22.8 0L0 0Z" fill="#ec9922"></path><path d="M0 152L22.8 142.5C45.7 133 91.3 114 137 107.2C182.7 100.3 228.3 105.7 274 106C319.7 106.3 365.3 101.7 411.2 100.5C457 99.3 503 101.7 548.8 106.2C594.7 110.7 640.3 117.3 686 121.3C731.7 125.3 777.3 126.7 823 121.3C868.7 116 914.3 104 937.2 98L960 92L960 0L937.2 0C914.3 0 868.7 0 823 0C777.3 0 731.7 0 686 0C640.3 0 594.7 0 548.8 0C503 0 457 0 411.2 0C365.3 0 319.7 0 274 0C228.3 0 182.7 0 137 0C91.3 0 45.7 0 22.8 0L0 0Z" fill="#e97f28"></path><path d="M0 72L22.8 76.8C45.7 81.7 91.3 91.3 137 96C182.7 100.7 228.3 100.3 274 96.3C319.7 92.3 365.3 84.7 411.2 77.3C457 70 503 63 548.8 66.3C594.7 69.7 640.3 83.3 686 93.2C731.7 103 777.3 109 823 106.8C868.7 104.7 914.3 94.3 937.2 89.2L960 84L960 0L937.2 0C914.3 0 868.7 0 823 0C777.3 0 731.7 0 686 0C640.3 0 594.7 0 548.8 0C503 0 457 0 411.2 0C365.3 0 319.7 0 274 0C228.3 0 182.7 0 137 0C91.3 0 45.7 0 22.8 0L0 0Z" fill="#ec9922"></path><path d="M0 63L22.8 62.5C45.7 62 91.3 61 137 58.2C182.7 55.3 228.3 50.7 274 46.8C319.7 43 365.3 40 411.2 40.7C457 41.3 503 45.7 548.8 44.5C594.7 43.3 640.3 36.7 686 35.7C731.7 34.7 777.3 39.3 823 46.5C868.7 53.7 914.3 63.3 937.2 68.2L960 73L960 0L937.2 0C914.3 0 868.7 0 823 0C777.3 0 731.7 0 686 0C640.3 0 594.7 0 548.8 0C503 0 457 0 411.2 0C365.3 0 319.7 0 274 0C228.3 0 182.7 0 137 0C91.3 0 45.7 0 22.8 0L0 0Z" fill="#e9c228"></path></svg>