<svg id="visual" viewBox="0 0 960 300" width="960" height="300" xmlns="http://www.w3.org/2000/svg" xmlns:xlink="http://www.w3.org/1999/xlink" version="1.1"><rect x="0" y="0" width="960" height="300" fill="#000000"></rect><path d="M0 136L14.5 138.7C29 141.3 58 146.7 87.2 149.3C116.3 152 145.7 152 174.8 139.5C204 127 233 102 262 100.3C291 98.7 320 120.3 349 127.3C378 134.3 407 126.7 436.2 123C465.3 119.3 494.7 119.7 523.8 117.3C553 115 582 110 611 107.7C640 105.3 669 105.7 698 104C727 102.3 756 98.7 785.2 99.3C814.3 100 843.7 105 872.8 106.2C902 107.3 931 104.7 945.5 103.3L960 102L960 301L945.5 301C931 301 902 301 872.8 301C843.7 301 814.3 301 785.2 301C756 301 727 301 698 301C669 301 640 301 611 301C582 301 553 301 523.8 301C494.7 301 465.3 301 436.2 301C407 301 378 301 349 301C320 301 291 301 262 301C233 301 204 301 174.8 301C145.7 301 116.3 301 87.2 301C58 301 29 301 14.5 301L0 301Z" fill="#000000"></path><path d="M0 121L14.5 126C29 131 58 141 87.2 138.7C116.3 136.3 145.7 121.7 174.8 117.5C204 113.3 233 119.7 262 124.3C291 129 320 132 349 136.2C378 140.3 407 145.7 436.2 142.2C465.3 138.7 494.7 126.3 523.8 123.8C553 121.3 582 128.7 611 125.8C640 123 669 110 698 107.8C727 105.7 756 114.3 785.2 120C814.3 125.7 843.7 128.3 872.8 128.8C902 129.3 931 127.7 945.5 126.8L960 126L960 301L945.5 301C931 301 902 301 872.8 301C843.7 301 814.3 301 785.2 301C756 301 727 301 698 301C669 301 640 301 611 301C582 301 553 301 523.8 301C494.7 301 465.3 301 436.2 301C407 301 378 301 349 301C320 301 291 301 262 301C233 301 204 301 174.8 301C145.7 301 116.3 301 87.2 301C58 301 29 301 14.5 301L0 301Z" fill="#0f0d06"></path><path d="M0 185L14.5 175.7C29 166.3 58 147.7 87.2 141.5C116.3 135.3 145.7 141.7 174.8 141.5C204 141.3 233 134.7 262 132.7C291 130.7 320 133.3 349 135.5C378 137.7 407 139.3 436.2 141C465.3 142.7 494.7 144.3 523.8 145C553 145.7 582 145.3 611 149.5C640 153.7 669 162.3 698 161.3C727 160.3 756 149.7 785.2 151.3C814.3 153 843.7 167 872.8 171.3C902 175.7 931 170.3 945.5 167.7L960 165L960 301L945.5 301C931 301 902 301 872.8 301C843.7 301 814.3 301 785.2 301C756 301 727 301 698 301C669 301 640 301 611 301C582 301 553 301 523.8 301C494.7 301 465.3 301 436.2 301C407 301 378 301 349 301C320 301 291 301 262 301C233 301 204 301 174.8 301C145.7 301 116.3 301 87.2 301C58 301 29 301 14.5 301L0 301Z" fill="#171612"></path><path d="M0 153L14.5 154C29 155 58 157 87.2 160.7C116.3 164.3 145.7 169.7 174.8 177.8C204 186 233 197 262 198.5C291 200 320 192 349 184.3C378 176.7 407 169.3 436.2 165C465.3 160.7 494.7 159.3 523.8 158.3C553 157.3 582 156.7 611 161C640 165.3 669 174.7 698 175.2C727 175.7 756 167.3 785.2 169.7C814.3 172 843.7 185 872.8 186.3C902 187.7 931 177.3 945.5 172.2L960 167L960 301L945.5 301C931 301 902 301 872.8 301C843.7 301 814.3 301 785.2 301C756 301 727 301 698 301C669 301 640 301 611 301C582 301 553 301 523.8 301C494.7 301 465.3 301 436.2 301C407 301 378 301 349 301C320 301 291 301 262 301C233 301 204 301 174.8 301C145.7 301 116.3 301 87.2 301C58 301 29 301 14.5 301L0 301Z" fill="#1e1d19"></path><path d="M0 195L14.5 198.8C29 202.7 58 210.3 87.2 209C116.3 207.7 145.7 197.3 174.8 193.3C204 189.3 233 191.7 262 190.7C291 189.7 320 185.3 349 190.5C378 195.7 407 210.3 436.2 216.5C465.3 222.7 494.7 220.3 523.8 219.8C553 219.3 582 220.7 611 218.8C640 217 669 212 698 212.7C727 213.3 756 219.7 785.2 214.7C814.3 209.7 843.7 193.3 872.8 187.2C902 181 931 185 945.5 187L960 189L960 301L945.5 301C931 301 902 301 872.8 301C843.7 301 814.3 301 785.2 301C756 301 727 301 698 301C669 301 640 301 611 301C582 301 553 301 523.8 301C494.7 301 465.3 301 436.2 301C407 301 378 301 349 301C320 301 291 301 262 301C233 301 204 301 174.8 301C145.7 301 116.3 301 87.2 301C58 301 29 301 14.5 301L0 301Z" fill="#262521"></path><path d="M0 215L14.5 213.3C29 211.7 58 208.3 87.2 210.5C116.3 212.7 145.7 220.3 174.8 220.5C204 220.7 233 213.3 262 209.7C291 206 320 206 349 208.3C378 210.7 407 215.3 436.2 221.3C465.3 227.3 494.7 234.7 523.8 232.7C553 230.7 582 219.3 611 215C640 210.7 669 213.3 698 218.7C727 224 756 232 785.2 236.7C814.3 241.3 843.7 242.7 872.8 243.2C902 243.7 931 243.3 945.5 243.2L960 243L960 301L945.5 301C931 301 902 301 872.8 301C843.7 301 814.3 301 785.2 301C756 301 727 301 698 301C669 301 640 301 611 301C582 301 553 301 523.8 301C494.7 301 465.3 301 436.2 301C407 301 378 301 349 301C320 301 291 301 262 301C233 301 204 301 174.8 301C145.7 301 116.3 301 87.2 301C58 301 29 301 14.5 301L0 301Z" fill="#2d2c28"></path><path d="M0 263L14.5 259C29 255 58 247 87.2 242.2C116.3 237.3 145.7 235.7 174.8 236.5C204 237.3 233 240.7 262 241.5C291 242.3 320 240.7 349 243.7C378 246.7 407 254.3 436.2 257C465.3 259.7 494.7 257.3 523.8 256.7C553 256 582 257 611 257.7C640 258.3 669 258.7 698 258.5C727 258.3 756 257.7 785.2 253.8C814.3 250 843.7 243 872.8 239C902 235 931 234 945.5 233.5L960 233L960 301L945.5 301C931 301 902 301 872.8 301C843.7 301 814.3 301 785.2 301C756 301 727 301 698 301C669 301 640 301 611 301C582 301 553 301 523.8 301C494.7 301 465.3 301 436.2 301C407 301 378 301 349 301C320 301 291 301 262 301C233 301 204 301 174.8 301C145.7 301 116.3 301 87.2 301C58 301 29 301 14.5 301L0 301Z" fill="#353430"></path><path d="M0 255L14.5 256.8C29 258.7 58 262.3 87.2 264.3C116.3 266.3 145.7 266.7 174.8 265.7C204 264.7 233 262.3 262 263.8C291 265.3 320 270.7 349 271.2C378 271.7 407 267.3 436.2 264.7C465.3 262 494.7 261 523.8 260.7C553 260.3 582 260.7 611 263.3C640 266 669 271 698 272.8C727 274.7 756 273.3 785.2 273.7C814.3 274 843.7 276 872.8 277.8C902 279.7 931 281.3 945.5 282.2L960 283L960 301L945.5 301C931 301 902 301 872.8 301C843.7 301 814.3 301 785.2 301C756 301 727 301 698 301C669 301 640 301 611 301C582 301 553 301 523.8 301C494.7 301 465.3 301 436.2 301C407 301 378 301 349 301C320 301 291 301 262 301C233 301 204 301 174.8 301C145.7 301 116.3 301 87.2 301C58 301 29 301 14.5 301L0 301Z" fill="#3d3c38"></path></svg>